<?xml version="1.0" encoding="utf-8"?>
<!-- Generator: Adobe Illustrator 27.9.0, SVG Export Plug-In . SVG Version: 6.00 Build 0)  -->
<svg version="1.1" id="Layer_1" xmlns="http://www.w3.org/2000/svg" xmlns:xlink="http://www.w3.org/1999/xlink" x="0px" y="0px"
	 viewBox="0 0 1920 1080" style="enable-background:new 0 0 1920 1080;" xml:space="preserve">
<style type="text/css">
	.st0{fill:#00FDC2;}
	.st1{fill:#01FAC0;}
	.st2{fill:#05EEB8;}
	.st3{fill:#09E4B1;}
	.st4{fill:#04F1BA;}
	.st5{fill:#0AE2AF;}
	.st6{fill:#0DDAAA;}
	.st7{fill:#0DD9A9;}
</style>
<path class="st0" d="M987.36,523.66c3.86,2.23,7.3,4.86,8.23,9.56c0.32,1.59,0.36,3.25,0.37,4.88c0.02,2.35,0.05,4.73-0.19,7.06
	c-0.37,3.52-2.15,6.36-5.05,8.36c-5.89,4.06-11.81,8.07-17.81,11.97c-4.27,2.78-9.7-0.19-9.86-5.29c-0.05-1.68,0.01-3.36-0.02-5.04
	c-0.03-2.49,1.03-4.36,3.09-5.74c4.45-2.97,8.9-5.96,13.33-8.96c0.38-0.25,0.67-0.63,1-0.95c0.43-0.19,0.89-0.33,1.28-0.58
	c1.44-0.93,2.83-1.93,4.28-2.83c4.05-2.52,4.62-6.38,2.7-9.51c-0.19-0.3-0.3-0.65-0.44-0.98
	C987.98,524.96,987.67,524.31,987.36,523.66z"/>
<path class="st0" d="M932.39,555.88c-1.12-0.76-2.29-1.47-3.37-2.28c-2.89-2.19-4.69-5.11-4.89-8.71c-0.2-3.5-0.16-7.04,0.12-10.53
	c0.27-3.44,2.12-6.21,4.93-8.16c5.91-4.09,11.87-8.12,17.89-12.04c4.28-2.78,9.72,0.21,9.85,5.31c0.05,1.72,0,3.44,0.01,5.16
	c0.02,2.4-1.02,4.21-2.99,5.54c-4.48,3-8.95,6.01-13.42,9.03c-0.36,0.24-0.69,0.53-1.03,0.8c-2.29,1.51-4.64,2.94-6.86,4.56
	c-2.23,1.63-3.01,4.74-1.94,7.31c0.47,1.13,1.13,2.19,1.7,3.28C932.39,555.39,932.39,555.63,932.39,555.88z"/>
<path class="st1" d="M966.67,530.3c-2.25-1.29-3.3-3.27-3.31-5.83c0-1.48,0.01-2.96,0-4.43c-0.04-2.87,1.14-5.02,3.76-6.28
	c2.66-1.28,5.04-0.57,7.26,1.12c0.72,0.54,1.46,1.04,2.2,1.56c-0.38,0.65-0.71,1.34-1.15,1.94c-2.43,3.3-4.9,6.58-7.34,9.87
	C967.59,528.92,967.14,529.62,966.67,530.3z"/>
<path class="st2" d="M966.67,530.3c0.47-0.69,0.92-1.39,1.42-2.05c2.44-3.29,4.91-6.57,7.34-9.87c0.44-0.6,0.77-1.29,1.15-1.94
	c2.07,1.39,4.14,2.77,6.21,4.16c-0.18,0.47-0.27,1.01-0.56,1.4c-2.77,3.81-5.57,7.59-8.39,11.36c-0.29,0.39-0.8,0.62-1.21,0.92
	C970.65,532.95,968.66,531.63,966.67,530.3z"/>
<path class="st3" d="M932.39,555.88c0-0.25,0-0.5-0.01-0.75c0.47-0.41,1.03-0.76,1.39-1.25c2.93-3.91,5.82-7.84,8.72-11.77
	c2.01,1.34,4.01,2.69,6.02,4.03c-2.97,4.06-5.96,8.11-8.9,12.2c-0.37,0.52-0.5,1.22-0.74,1.84
	C936.71,558.75,934.55,557.32,932.39,555.88z"/>
<path class="st1" d="M954.08,549.89c1.7,1.2,2.47,2.9,2.53,4.92c0.06,1.8,0.06,3.6,0,5.39c-0.16,5.06-5.59,7.97-9.89,5.31
	c-0.88-0.54-1.7-1.18-2.55-1.77c0.28-0.48,0.52-0.98,0.85-1.42C948.03,558.17,951.05,554.03,954.08,549.89z"/>
<path class="st4" d="M954.08,549.89c-3.02,4.14-6.05,8.28-9.06,12.42c-0.32,0.45-0.57,0.95-0.85,1.42
	c-1.76-1.19-3.53-2.37-5.29-3.56c0.24-0.62,0.37-1.32,0.74-1.84c2.94-4.09,5.93-8.14,8.9-12.2
	C950.37,547.4,952.22,548.64,954.08,549.89z"/>
<path class="st5" d="M972.63,534.28c0.41-0.3,0.91-0.53,1.21-0.92c2.82-3.77,5.62-7.56,8.39-11.36c0.29-0.39,0.38-0.93,0.56-1.4
	c1.53,1.02,3.05,2.04,4.58,3.06c0.31,0.65,0.61,1.31,0.92,1.96c-0.53,0.45-1.17,0.83-1.58,1.37c-2.37,3.11-4.69,6.26-7.01,9.41
	c-0.44,0.6-0.81,1.26-1.21,1.89C976.53,536.95,974.58,535.62,972.63,534.28z"/>
<path class="st6" d="M942.5,542.12c-2.9,3.93-5.79,7.86-8.72,11.77c-0.37,0.49-0.92,0.84-1.39,1.25c-0.57-1.09-1.23-2.15-1.7-3.28
	c-1.07-2.58-0.29-5.69,1.94-7.31c2.22-1.62,4.57-3.05,6.86-4.56C940.49,540.69,941.49,541.4,942.5,542.12z"/>
<path class="st7" d="M978.48,538.29c0.4-0.63,0.77-1.29,1.21-1.89c2.32-3.15,4.64-6.3,7.01-9.41c0.41-0.54,1.05-0.92,1.58-1.37
	c0.15,0.33,0.26,0.67,0.44,0.98c1.91,3.13,1.34,6.98-2.7,9.51c-1.45,0.9-2.84,1.91-4.28,2.83c-0.39,0.25-0.85,0.39-1.28,0.58
	C979.8,539.11,979.14,538.7,978.48,538.29z"/>
</svg>
